<svg width="449" height="198" xmlns="http://www.w3.org/2000/svg" xmlns:xlink="http://www.w3.org/1999/xlink"><defs><path d="M9.361 9.465c2.813-2.825 6.2-4.237 10.164-4.237 3.963 0 7.34 1.402 10.13 4.204 2.792 2.803 4.188 6.194 4.188 10.174 0 3.98-1.396 7.37-4.187 10.174-2.791 2.802-6.168 4.204-10.131 4.204s-7.34-1.402-10.132-4.204c-2.79-2.803-4.186-6.194-4.186-10.174 0-3.98 1.384-7.36 4.154-10.141zm17.514 5.327c.043-.043.064-.107.064-.192 0-.129-.021-.214-.064-.257l-1.981-1.54c-.043-.044-.128-.065-.256-.065-.085 0-.149.021-.192.064l-7.095 9.179a1490.393 1490.393 0 01-2.876-2.76c-.128-.128-.256-.193-.384-.193-.042 0-.127.065-.255.193l-1.662 1.669c-.043.043-.064.128-.064.257 0 .085.021.15.064.192l.128.064 5.05 4.878c.127.129.234.193.319.193.085 0 .192-.064.32-.193l8.884-11.489z" id="a"/><path d="M303.45 54.473c.983-.982 2.166-1.473 3.55-1.473s2.563.487 3.538 1.462c.975.975 1.462 2.154 1.462 3.538s-.487 2.563-1.462 3.538C309.563 62.513 308.384 63 307 63s-2.563-.487-3.538-1.462C302.487 60.563 302 59.384 302 58s.484-2.56 1.45-3.527zm6.117 1.853c.015-.015.022-.037.022-.067 0-.045-.007-.074-.022-.09l-.692-.535c-.015-.015-.045-.022-.09-.022-.029 0-.051.007-.066.022l-2.478 3.192c-.655-.625-.99-.945-1.004-.96-.045-.045-.09-.067-.134-.067-.015 0-.045.022-.09.067l-.58.58c-.015.015-.022.045-.022.09 0 .03.007.052.022.067l.045.022 1.763 1.696c.045.045.082.067.112.067s.067-.022.111-.067l3.103-3.995z" id="b"/></defs><g fill="none" fill-rule="evenodd"><rect fill="#EBEEF1" x="355" y="72" width="93" height="23" rx="11.5"/><rect fill="#EBEEF1" x="3" y="80" width="93" height="23" rx="11.5"/><path d="M385.861 68.797H340.04c-10.355 0-18.75 6.917-18.75 15.45 0 8.49 8.308 15.39 18.61 15.452l87.319.532c12.056.072 21.782 8.147 21.782 18.082 0 9.986-9.824 18.082-21.945 18.082h-34.052c-20.809 0-37.676 13.9-37.676 31.046 0 6.914-5.605 12.519-12.52 12.519h-.04l-225.234-.721a13.548 13.548 0 01-13.39-11.798c-1.908-14.642-17.157-17.442-35.435-17.442H24.105C10.792 149.999 0 141.105 0 130.134c0-10.969 10.792-19.862 24.105-19.862h74.72c12.27 0 22.218-8.197 22.218-18.306 0-10.111-9.948-18.308-22.218-18.308H63.521c-13.961 0-25.277-9.325-25.277-20.83C38.244 41.327 49.56 32 63.521 32h322.34c12.331 0 22.328 8.238 22.328 18.398 0 10.161-9.997 18.399-22.328 18.399z" fill="#EBEEF1"/><g fill="#8C99AA"><path d="M144.04 15.784H135.6c-.798 0-1.446-.59-1.446-1.316 0-.726.648-1.315 1.446-1.315h8.438c.799 0 1.446.59 1.446 1.315 0 .726-.647 1.316-1.446 1.316"/><path d="M139.82 20.168c-.721 0-1.307-.652-1.307-1.455v-8.49c0-.803.586-1.454 1.307-1.454.722 0 1.308.651 1.308 1.454v8.49c0 .803-.586 1.455-1.308 1.455M383.409 163.98l-3.338 3.339c-.316.315-.774.37-1.023.12-.249-.248-.195-.707.12-1.022l3.339-3.338c.316-.316.774-.37 1.023-.121.249.248.195.707-.121 1.022"/><path d="M383.544 167.453c-.248.248-.706.19-1.024-.127l-3.359-3.358c-.317-.318-.374-.777-.127-1.024.248-.248.706-.19 1.024.127l3.358 3.359c.318.317.375.776.128 1.023M101.667 147.315h-6.491c-.614 0-1.112-.393-1.112-.877s.498-.877 1.112-.877h6.491c.614 0 1.112.393 1.112.877s-.498.877-1.112.877"/><path d="M98.422 150.823c-.482 0-.872-.502-.872-1.12v-6.53c0-.618.39-1.12.872-1.12.48 0 .871.502.871 1.12v6.53c0 .618-.39 1.12-.871 1.12M375 92.072h-8.438c-.798 0-1.446-.59-1.446-1.315 0-.726.648-1.316 1.446-1.316h8.439c.798 0 1.445.59 1.445 1.316 0 .726-.647 1.315-1.445 1.315"/><path d="M370.781 96.456c-.721 0-1.307-.651-1.307-1.454v-8.49c0-.803.586-1.455 1.307-1.455.722 0 1.308.652 1.308 1.455v8.49c0 .803-.586 1.454-1.308 1.454M317.578 187.651h-8.439c-.798 0-1.446-.589-1.446-1.315s.648-1.315 1.446-1.315h8.439c.798 0 1.446.589 1.446 1.315s-.648 1.315-1.446 1.315"/><path d="M313.358 192.036c-.721 0-1.307-.652-1.307-1.455v-8.49c0-.803.586-1.455 1.307-1.455.722 0 1.308.652 1.308 1.455v8.49c0 .803-.586 1.455-1.308 1.455M91.128 113.117c-.364 0-.728-.14-1.005-.42a1.436 1.436 0 010-2.023l5.87-5.906a1.417 1.417 0 012.012 0c.555.559.555 1.465 0 2.024l-5.872 5.905c-.277.28-.64.42-1.005.42"/><path d="M97 113.117c-.365 0-.729-.14-1.006-.42l-5.871-5.905a1.438 1.438 0 010-2.024 1.417 1.417 0 012.012 0l5.87 5.906c.555.56.555 1.464 0 2.023-.277.28-.641.42-1.005.42M318.598 145.096a.574.574 0 01.407-.975l3.33-.011a.567.567 0 01.57.57.575.575 0 01-.573.572l-3.33.01a.563.563 0 01-.404-.166"/><path d="M320.259 146.756a.563.563 0 01-.166-.403l.01-3.33a.575.575 0 01.572-.573.567.567 0 01.57.569l-.01 3.33a.574.574 0 01-.976.407M63.56 47.351h53.164v-2.63H63.56zM323.282 91.195h35.733v-2.63h-35.733zM302.365 81.55h24.403v-1.754h-24.403zM330.254 81.55h5.23v-1.754h-5.23zM405.208 118.378a2.624 2.624 0 01-2.615 2.63 2.622 2.622 0 01-2.615-2.63c0-1.45 1.17-2.63 2.615-2.63a2.625 2.625 0 012.615 2.63M59.202 88.564c0 .485-.391.877-.872.877a.874.874 0 01-.871-.877c0-.484.39-.876.871-.876.48 0 .872.392.872.876M342.456 42.967c0 .969-.78 1.754-1.743 1.754a1.748 1.748 0 01-1.743-1.754c0-.97.78-1.754 1.743-1.754.963 0 1.743.785 1.743 1.754M296.264 104.348c0 .97-.78 1.754-1.743 1.754a1.748 1.748 0 01-1.743-1.754c0-.969.78-1.754 1.743-1.754.963 0 1.743.785 1.743 1.754M82.734 28.937a1.75 1.75 0 01-1.743 1.754 1.748 1.748 0 01-1.744-1.754c0-.97.78-1.754 1.744-1.754a1.75 1.75 0 011.743 1.754M64.431 140.3a1.75 1.75 0 01-1.743 1.754 1.75 1.75 0 01-1.743-1.754c0-.97.78-1.754 1.743-1.754.963 0 1.743.785 1.743 1.754M257.044 73.658c0 .969-.781 1.753-1.743 1.753a1.748 1.748 0 01-1.743-1.753c0-.97.78-1.754 1.743-1.754.962 0 1.743.784 1.743 1.754M287.548 1.754c0 .97-.78 1.754-1.743 1.754a1.748 1.748 0 01-1.743-1.754c0-.97.781-1.754 1.743-1.754.964 0 1.743.784 1.743 1.754"/></g><path d="M288.064 180.532l-101.021 16c-3.084.489-5.991-1.685-6.494-4.855L157.34 45.13c-.502-3.17 1.59-6.135 4.675-6.624l101.021-16c3.084-.488 5.991 1.685 6.493 4.855l23.211 146.547c.502 3.17-1.59 6.136-4.675 6.624" stroke="#8C99AA" stroke-width="2" fill="#C1D3E1"/><path fill="#DDE9F2" d="M174.937 83.632l27.616-4.374-5.363-33.862-27.616 4.374z"/><path d="M252.35 83.832L178.182 95.58c-.729.116-1.424-.448-1.552-1.258l-.36-2.275c-.129-.81.358-1.561 1.087-1.676l74.167-11.747c.73-.116 1.424.448 1.553 1.258l.36 2.275c.128.81-.358 1.56-1.087 1.676M230.759 74.791l-24.48 3.877c-.628.1-1.227-.387-1.337-1.086l-.424-2.677c-.111-.7.308-1.347.936-1.446l24.48-3.877c.627-.1 1.226.386 1.337 1.086l.424 2.677c.11.7-.309 1.347-.936 1.446M254.498 96.843l-74.34 11.774c-.68.108-1.33-.419-1.45-1.177l-.39-2.466c-.12-.757.334-1.459 1.016-1.567l74.34-11.774c.68-.108 1.33.419 1.45 1.176l.39 2.466c.12.758-.335 1.46-1.016 1.568M235.002 113.282l-52.796 8.362c-.672.106-1.313-.41-1.431-1.155l-.399-2.515c-.117-.744.333-1.434 1.005-1.54l52.796-8.362c.672-.107 1.314.41 1.431 1.154l.399 2.515c.117.744-.332 1.434-1.005 1.54M259.036 125.496l-74.337 11.774c-.683.108-1.333-.42-1.453-1.177l-.39-2.465c-.12-.758.335-1.46 1.017-1.568l74.338-11.774c.682-.108 1.332.42 1.452 1.177l.39 2.465c.12.758-.335 1.46-1.017 1.568M211.852 145.43l-25.31 4.009c-.637.1-1.243-.382-1.353-1.078l-.426-2.689c-.11-.696.317-1.342.955-1.443l25.308-4.009c.637-.1 1.243.382 1.353 1.078l.426 2.689c.11.696-.317 1.342-.953 1.443M269.238 150.582l-80.45 12.742c-.662.105-1.293-.405-1.41-1.138l-.404-2.554c-.116-.733.327-1.413.989-1.518l80.45-12.742c.662-.105 1.293.405 1.41 1.138l.404 2.554c.116.733-.327 1.413-.989 1.518" fill="#EBEEF1"/><g><path d="M263.286 192.173l-101.519-12.465c-3.099-.38-5.294-3.271-4.903-6.457l18.082-147.267c.391-3.186 3.22-5.46 6.32-5.08L282.784 33.37c3.1.38 5.295 3.271 4.904 6.457l-18.082 147.267c-.392 3.186-3.221 5.46-6.32 5.08" stroke="#8C99AA" stroke-width="2" fill="#DDE9F2"/><path fill="#DDE9F2" d="M181.25 67.845l27.752 3.408 4.178-34.03-27.751-3.407z"/><path d="M255.609 89.375l-74.532-9.151c-.733-.09-1.245-.823-1.145-1.638l.28-2.286c.1-.814.775-1.402 1.508-1.312l74.532 9.152c.732.09 1.245.823 1.145 1.637l-.28 2.286c-.1.815-.776 1.402-1.508 1.312M237.346 74.733l-24.6-3.02c-.63-.078-1.072-.71-.986-1.413l.33-2.691c.087-.703.668-1.21 1.299-1.132l24.6 3.02c.631.078 1.072.71.986 1.413l-.33 2.69c-.087.703-.668 1.21-1.299 1.133M254.088 102.474L179.383 93.3c-.685-.084-1.164-.77-1.07-1.53l.304-2.48c.094-.76.724-1.31 1.409-1.225l74.705 9.173c.685.084 1.164.769 1.07 1.53l-.304 2.478c-.093.762-.724 1.31-1.409 1.227M230.816 112.902l-53.055-6.515c-.676-.083-1.15-.756-1.058-1.504l.31-2.527c.092-.748.714-1.287 1.39-1.204l53.056 6.515c.676.083 1.15.756 1.058 1.504l-.31 2.527c-.093.748-.715 1.287-1.391 1.204M250.552 131.268l-74.703-9.173c-.685-.084-1.165-.77-1.072-1.531l.305-2.477c.093-.762.724-1.311 1.41-1.227l74.703 9.172c.685.085 1.165.77 1.071 1.532l-.304 2.477c-.094.761-.725 1.31-1.41 1.227M199.701 137.424l-25.433-3.123c-.64-.079-1.09-.71-1.004-1.409l.331-2.702c.086-.7.675-1.203 1.315-1.124l25.434 3.123c.64.078 1.09.709 1.003 1.408l-.332 2.702c-.085.7-.674 1.203-1.314 1.125M253.444 158.194l-80.845-9.927c-.666-.081-1.132-.745-1.041-1.482l.315-2.566c.09-.738.703-1.269 1.369-1.187l80.845 9.927c.666.081 1.132.745 1.041 1.482l-.315 2.566c-.09.737-.703 1.269-1.369 1.187" fill="#EBEEF1"/></g><g><path d="M273.476 186.797H171.788c-3.104 0-5.62-2.595-5.62-5.796V33.004c0-3.201 2.516-5.797 5.62-5.797h101.688c3.104 0 5.62 2.596 5.62 5.797V181c0 3.201-2.516 5.796-5.62 5.796" stroke="#8C99AA" stroke-width="2" fill="#FFF"/><path fill="#DDE9F2" d="M177.46 73.681h27.798V39.484H177.46z"/><path d="M253.445 85.957H178.79c-.734 0-1.329-.663-1.329-1.482v-2.297c0-.818.595-1.482 1.329-1.482h74.656c.734 0 1.329.664 1.329 1.482v2.297c0 .819-.595 1.482-1.329 1.482M233.65 73.681h-24.642c-.631 0-1.144-.572-1.144-1.278v-2.704c0-.707.513-1.279 1.144-1.279h24.642c.632 0 1.144.572 1.144 1.279v2.704c0 .706-.512 1.278-1.144 1.278M253.531 99.11h-74.829c-.686 0-1.242-.62-1.242-1.385v-2.49c0-.766.556-1.386 1.242-1.386h74.83c.685 0 1.242.62 1.242 1.385v2.49c0 .766-.557 1.386-1.243 1.386M231.83 112.263h-53.143c-.678 0-1.227-.609-1.227-1.36v-2.54c0-.751.55-1.36 1.227-1.36h53.143c.677 0 1.226.609 1.226 1.36v2.54c0 .751-.549 1.36-1.226 1.36M253.531 128.047h-74.827c-.687 0-1.244-.62-1.244-1.386v-2.489c0-.766.557-1.386 1.244-1.386h74.827c.686 0 1.243.62 1.243 1.386v2.489c0 .765-.557 1.386-1.243 1.386M204.098 140.323h-25.476c-.642 0-1.162-.57-1.162-1.273v-2.715c0-.703.52-1.273 1.162-1.273h25.476c.64 0 1.16.57 1.16 1.273v2.715c0 .703-.52 1.273-1.16 1.273M259.647 154.353h-80.98c-.666 0-1.207-.6-1.207-1.341v-2.58c0-.74.54-1.34 1.207-1.34h80.98c.667 0 1.207.6 1.207 1.34v2.58c0 .74-.54 1.341-1.207 1.341" fill="#EBEEF1"/></g><g><path d="M124 83h25v25h-25z"/><path d="M136.5 86.125c-5.175 0-9.375 4.2-9.375 9.375s4.2 9.375 9.375 9.375 9.375-4.2 9.375-9.375-4.2-9.375-9.375-9.375zm.938 14.063h-1.875v-5.626h1.875v5.626zm0-7.5h-1.875v-1.876h1.875v1.876z" fill="#8C99AA" fill-rule="nonzero"/></g><g transform="translate(287 109)"><path d="M0 0h38.181v38.34H0z"/><use fill="#8C99AA" fill-rule="nonzero" xlink:href="#a"/></g><use fill="#8C99AA" fill-rule="nonzero" xlink:href="#b"/></g></svg>
