<?xml version="1.0" encoding="UTF-8"?>
<svg width="449px" height="181px" viewBox="0 0 449 181" version="1.1" xmlns="http://www.w3.org/2000/svg" xmlns:xlink="http://www.w3.org/1999/xlink">
    <!-- Generator: sketchtool 63.1 (101010) - https://sketch.com -->
    <title>34736913-4204-4F6C-B2EF-A5963447EFB6@1.00x</title>
    <desc>Created with sketchtool.</desc>
    <g id="Desktop" stroke="none" stroke-width="1" fill="none" fill-rule="evenodd">
        <g id="Track-Applications-—-Archive-empty-state-[dsk]" transform="translate(-495.000000, -209.000000)">
            <g id="No-Access---Empty-States" transform="translate(719.500000, 303.500000) rotate(-360.000000) translate(-719.500000, -303.500000) translate(495.000000, 209.000000)">
                <g id="Group-3" transform="translate(0.000000, 19.000000)" fill="#EBEEF1">
                    <path d="M385.861365,36.7969273 C385.861365,36.7969273 370.587217,36.7969273 340.03892,36.7969273 C329.683698,36.7969273 321.288207,43.7135094 321.288207,52.2465984 C321.288207,60.7360852 329.597469,67.6365184 339.899779,67.6994992 L427.217583,68.2307986 C439.273852,68.3034687 449,76.3779284 449,86.3127435 C449,96.2992351 439.175865,104.394688 427.054925,104.394688 L393.002628,104.394688 C372.194197,104.394688 355.326786,118.294063 355.326786,135.440986 C355.326786,142.354966 349.721898,147.959854 342.807918,147.959854 C342.794557,147.959854 342.781197,147.959833 342.767836,147.95979 L117.533149,147.238658 C110.743942,147.21691 105.019184,142.173335 104.1421,135.440986 C104.1421,135.440986 104.1421,135.440986 104.1421,135.440986 C102.23451,120.798631 86.9855514,117.998538 68.708192,117.998538 L24.1046994,117.998538 C10.7922423,117.998538 0,109.105328 0,98.1337523 C0,87.1654064 10.7922423,78.2721966 24.1046994,78.2721966 L98.8253482,78.2721966 C111.095228,78.2721966 121.042826,70.0750052 121.042826,59.9657817 C121.042826,49.8549434 111.095228,41.657752 98.8253482,41.657752 L63.5207823,41.657752 C49.559654,41.657752 38.2441634,32.3333661 38.2441634,20.828876 C38.2441634,9.32600085 49.559654,0 63.5207823,0 L385.861365,0 C398.191997,0 408.188588,8.2375637 408.188588,18.3984637 C408.188588,28.5593636 398.191997,36.7969273 385.861365,36.7969273 Z" id="Fill-1"></path>
                    <rect id="Rectangle" x="355" y="40" width="93" height="23" rx="11.5"></rect>
                    <rect id="Rectangle" x="3" y="48" width="93" height="23" rx="11.5"></rect>
                </g>
                <g id="Group" transform="translate(43.000000, 0.000000)" fill="#8C99AA">
                    <g id="Group-5" transform="translate(134.433962, 14.193031)">
                        <path d="M10.030357,7.09651544 L1.46728452,7.09651544 C0.657343466,7.09651544 0,6.50040814 0,5.7659188 C0,5.03142945 0.657343466,4.43532215 1.46728452,4.43532215 L10.030357,4.43532215 C10.840298,4.43532215 11.4976415,5.03142945 11.4976415,5.7659188 C11.4976415,6.50040814 10.840298,7.09651544 10.030357,7.09651544" id="Fill-4"></path>
                        <path d="M5.74882075,11.5318376 C5.01650943,11.5318376 4.42216981,10.8725391 4.42216981,10.0601891 L4.42216981,1.47164849 C4.42216981,0.659298525 5.01650943,0 5.74882075,0 C6.48113208,0 7.0754717,0.659298525 7.0754717,1.47164849 L7.0754717,10.0601891 C7.0754717,10.8725391 6.48113208,11.5318376 5.74882075,11.5318376" id="Fill-6"></path>
                    </g>
                    <g id="Group-4" transform="translate(350.812977, 153.574896) rotate(-45.000000) translate(-350.812977, -153.574896) translate(347.312977, 150.057308)">
                        <path d="M5.66656848,4.27166382 L0.876038429,4.27166382 C0.422924552,4.27166382 0.0551799556,3.9826421 0.0551799556,3.62652606 C0.0551799556,3.27041001 0.422924552,2.98138829 0.876038429,2.98138829 L5.66656848,2.98138829 C6.11968236,2.98138829 6.48742695,3.27041001 6.48742695,3.62652606 C6.48742695,3.9826421 6.11968236,4.27166382 5.66656848,4.27166382" id="Fill-8"></path>
                        <path d="M3.27130345,6.85221489 C2.91624342,6.85221489 2.62807875,6.48337656 2.62807875,6.02891504 L2.62807875,1.22413708 C2.62807875,0.769675555 2.91624342,0.400837219 3.27130345,0.400837219 C3.62636349,0.400837219 3.91452815,0.769675555 3.91452815,1.22413708 L3.91452815,6.02891504 C3.91452815,6.48337656 3.62636349,6.85221489 3.27130345,6.85221489" id="Fill-10"></path>
                    </g>
                    <g id="Group-4" transform="translate(59.257075, 130.398471)">
                        <path d="M7.71565922,5.32238658 L1.1286804,5.32238658 C0.50564882,5.32238658 0,4.92498172 0,4.43532215 C0,3.94566259 0.50564882,3.54825772 1.1286804,3.54825772 L7.71565922,3.54825772 C8.3386908,3.54825772 8.84433962,3.94566259 8.84433962,4.43532215 C8.84433962,4.92498172 8.3386908,5.32238658 7.71565922,5.32238658" id="Fill-8"></path>
                        <path d="M4.42216981,8.8706443 C3.93396226,8.8706443 3.53773585,8.36349159 3.53773585,7.738607 L3.53773585,1.1320373 C3.53773585,0.507152711 3.93396226,0 4.42216981,0 C4.91037736,0 5.30660377,0.507152711 5.30660377,1.1320373 L5.30660377,7.738607 C5.30660377,8.36349159 4.91037736,8.8706443 4.42216981,8.8706443" id="Fill-10"></path>
                    </g>
                    <g id="Group-2" transform="translate(347.582547, 86.000000)">
                        <path d="M10.030357,7.09651544 L1.46728452,7.09651544 C0.657343466,7.09651544 0,6.50040814 0,5.7659188 C0,5.03142945 0.657343466,4.43532215 1.46728452,4.43532215 L10.030357,4.43532215 C10.840298,4.43532215 11.4976415,5.03142945 11.4976415,5.7659188 C11.4976415,6.50040814 10.840298,7.09651544 10.030357,7.09651544" id="Fill-12"></path>
                        <path d="M5.74882075,11.5318376 C5.01650943,11.5318376 4.42216981,10.8725391 4.42216981,10.0601891 L4.42216981,1.47164849 C4.42216981,0.659298525 5.01650943,0 5.74882075,0 C6.48113208,0 7.0754717,0.659298525 7.0754717,1.47164849 L7.0754717,10.0601891 C7.0754717,10.8725391 6.48113208,11.5318376 5.74882075,11.5318376" id="Fill-14"></path>
                    </g>
                    <g id="Group-2" transform="translate(259.139151, 169.429306)">
                        <path d="M10.030357,7.09651544 L1.46728452,7.09651544 C0.657343466,7.09651544 0,6.50040814 0,5.7659188 C0,5.03142945 0.657343466,4.43532215 1.46728452,4.43532215 L10.030357,4.43532215 C10.840298,4.43532215 11.4976415,5.03142945 11.4976415,5.7659188 C11.4976415,6.50040814 10.840298,7.09651544 10.030357,7.09651544" id="Fill-12"></path>
                        <path d="M5.74882075,11.5318376 C5.01650943,11.5318376 4.42216981,10.8725391 4.42216981,10.0601891 L4.42216981,1.47164849 C4.42216981,0.659298525 5.01650943,0 5.74882075,0 C6.48113208,0 7.0754717,0.659298525 7.0754717,1.47164849 L7.0754717,10.0601891 C7.0754717,10.8725391 6.48113208,11.5318376 5.74882075,11.5318376" id="Fill-14"></path>
                    </g>
                    <g id="Group-6" transform="translate(25.648585, 92.254701)">
                        <path d="M1.4429428,8.8706443 C1.07342627,8.8706443 0.703909741,8.72971018 0.422923214,8.44591135 C-0.140974405,7.88024427 -0.140974405,6.96513782 0.422923214,6.39947074 L6.37945267,0.424250304 C6.94335029,-0.141416768 7.85751879,-0.141416768 8.42141641,0.424250304 C8.98531403,0.989917376 8.98531403,1.90695444 8.42141641,2.47262151 L2.46296238,8.44591135 C2.18197586,8.72971018 1.81245933,8.8706443 1.4429428,8.8706443" id="Fill-16"></path>
                        <path d="M7.40139682,8.8706443 C7.0318803,8.8706443 6.66236377,8.72971018 6.38137724,8.44591135 L0.422923214,2.47262151 C-0.140974405,1.90695444 -0.140974405,0.989917376 0.422923214,0.424250304 C0.986820834,-0.141416768 1.90098933,-0.141416768 2.46488695,0.424250304 L8.42141641,6.39947074 C8.98531403,6.96513782 8.98531403,7.88024427 8.42141641,8.44591135 C8.14042988,8.72971018 7.77091335,8.8706443 7.40139682,8.8706443" id="Fill-18"></path>
                    </g>
                    <g id="Group-6" transform="translate(290.090511, 134.443346) rotate(-315.000000) translate(-290.090511, -134.443346) translate(287.090511, 131.428271)">
                        <path d="M0.865765679,5.32238658 C0.644055762,5.32238658 0.422345845,5.23782611 0.253753929,5.06754681 C-0.0845846429,4.72814656 -0.0845846429,4.17908269 0.253753929,3.83968245 L3.8276716,0.254550183 C4.16601018,-0.0848500608 4.71451127,-0.0848500608 5.05284984,0.254550183 C5.39118842,0.593950426 5.39118842,1.14417266 5.05284984,1.48357291 L1.47777743,5.06754681 C1.30918551,5.23782611 1.0874756,5.32238658 0.865765679,5.32238658" id="Fill-16"></path>
                        <path d="M4.44083809,5.32238658 C4.21912818,5.32238658 3.99741826,5.23782611 3.82882634,5.06754681 L0.253753929,1.48357291 C-0.0845846429,1.14417266 -0.0845846429,0.593950426 0.253753929,0.254550183 C0.5920925,-0.0848500608 1.1405936,-0.0848500608 1.47893217,0.254550183 L5.05284984,3.83968245 C5.39118842,4.17908269 5.39118842,4.72814656 5.05284984,5.06754681 C4.88425793,5.23782611 4.66254801,5.32238658 4.44083809,5.32238658" id="Fill-18"></path>
                    </g>
                    <polygon id="Fill-20" points="28.3018868 34.5955128 82.2523585 34.5955128 82.2523585 31.9343195 28.3018868 31.9343195"></polygon>
                    <polygon id="Fill-22" points="305.129717 92.209451 341.391509 92.209451 341.391509 89.5482577 305.129717 89.5482577"></polygon>
                    <path d="M1.76886792,76.287541 C1.76886792,76.7775182 1.37225126,77.1746054 0.884433962,77.1746054 C0.395909687,77.1746054 0,76.7775182 0,76.287541 C0,75.7975638 0.395909687,75.4004766 0.884433962,75.4004766 C1.37225126,75.4004766 1.76886792,75.7975638 1.76886792,76.287541" id="Fill-24"></path>
                    <path d="M311.320755,30.1601906 C311.320755,31.1405161 310.529305,31.9343195 309.551887,31.9343195 C308.574468,31.9343195 307.783019,31.1405161 307.783019,30.1601906 C307.783019,29.1798651 308.574468,28.3860618 309.551887,28.3860618 C310.529305,28.3860618 311.320755,29.1798651 311.320755,30.1601906" id="Fill-25"></path>
                    <path d="M47.759434,15.9671597 C47.759434,16.9474852 46.9658221,17.7412886 45.990566,17.7412886 C45.0131476,17.7412886 44.2216981,16.9474852 44.2216981,15.9671597 C44.2216981,14.9868343 45.0131476,14.1930309 45.990566,14.1930309 C46.9658221,14.1930309 47.759434,14.9868343 47.759434,15.9671597" id="Fill-26"></path>
                    <path d="M15.0353774,148.13976 C15.0353774,149.117916 14.2439279,149.913889 13.2665094,149.913889 C12.289091,149.913889 11.4976415,149.117916 11.4976415,148.13976 C11.4976415,147.159434 12.289091,146.365631 13.2665094,146.365631 C14.2439279,146.365631 15.0353774,147.159434 15.0353774,148.13976" id="Fill-27"></path>
                    <path d="M340.507075,120.640762 C340.507075,121.621502 339.714415,122.414891 338.738208,122.414891 C337.762,122.414891 336.96934,121.621502 336.96934,120.640762 C336.96934,119.660023 337.762,118.866634 338.738208,118.866634 C339.714415,118.866634 340.507075,119.660023 340.507075,120.640762" id="Fill-28"></path>
                    <path d="M252.948113,1.77412886 C252.948113,2.7548686 252.157077,3.54825772 251.179245,3.54825772 C250.203038,3.54825772 249.410377,2.7548686 249.410377,1.77412886 C249.410377,0.793389123 250.203038,0 251.179245,0 C252.157077,0 252.948113,0.793389123 252.948113,1.77412886" id="Fill-29"></path>
                </g>
                <g id="open-folder" transform="translate(141.000000, 38.190955)">
                    <polygon id="Path" fill="#DDE9F2" points="4.35233161 4.90164968 4.35233161 119.522613 23.3197133 43.6602326 144.497409 43.6602326 144.497409 21.6892391 58.5435512 21.6892391 44.3910477 2.6758794"></polygon>
                    <polygon id="Path" fill="#FFFFFF" points="4.35233161 132.556704 23.3387761 43.7060302 161.112664 43.7060302 166.259067 50.0702371 148.213137 132.556704 138.208392 139.326279 8.79608071 140.037688"></polygon>
                    <path d="M145.222798,62.4371859 L101.119171,62.4371859 C99.5948394,62.4371859 98.3626943,61.2410678 98.3626943,59.7613065 C98.3626943,58.2815452 99.5948394,57.0854271 101.119171,57.0854271 L145.222798,57.0854271 C146.74713,57.0854271 147.979275,58.2815452 147.979275,59.7613065 C147.979275,61.2410678 146.74713,62.4371859 145.222798,62.4371859" id="Path" fill="#DDE9F2" fill-rule="nonzero"></path>
                    <path d="M145.193782,74.0326633 L122.909845,74.0326633 C121.369467,74.0326633 120.124352,72.8365452 120.124352,71.3567839 C120.124352,69.8770226 121.369467,68.6809045 122.909845,68.6809045 L145.193782,68.6809045 C146.73416,68.6809045 147.979275,69.8770226 147.979275,71.3567839 C147.979275,72.8365452 146.73416,74.0326633 145.193782,74.0326633" id="Path" fill="#DDE9F2" fill-rule="nonzero"></path>
                    <path d="M28.2842941,44.9944165 C26.4479579,44.9944165 24.8491995,46.3164992 24.4830503,48.1357998 L7.40819888,132.61688 C7.19018637,133.686043 7.45291939,134.78682 8.12093208,135.634678 C8.7917398,136.479661 9.78397621,136.965382 10.8460884,136.965382 L136.410113,136.965382 C141.209183,136.965382 145.404527,133.456115 146.379993,128.624765 L162.328446,49.7136767 C162.560434,48.5640396 162.278136,47.3799135 161.557017,46.4688261 C160.813539,45.5318719 159.709501,44.9944165 158.527203,44.9944165 L28.2842941,44.9944165 Z M136.410113,142.713568 L10.8460884,142.713568 C8.09298176,142.713568 5.52155217,141.457589 3.7858372,139.261783 C2.05012223,137.065976 1.37372445,134.220624 1.93273088,131.449999 L19.0075823,46.9689182 C19.9103777,42.4939559 23.8122426,39.2462312 28.2842941,39.2462312 L158.527203,39.2462312 C161.400496,39.2462312 164.083726,40.5568174 165.889317,42.838847 C167.680933,45.100758 168.376896,48.0323325 167.803914,50.8805583 L151.855461,129.791647 C150.343348,137.278659 143.847694,142.713568 136.410113,142.713568 L136.410113,142.713568 Z" id="Shape" fill="#8C99AB" fill-rule="nonzero"></path>
                    <path d="M5.19881904,140.485766 C1.943275,138.380173 0,134.792128 0,130.888244 L0,11.3815864 C0,5.1046415 5.00616678,0 11.1682471,0 L42.5538137,0 C45.1057581,0 47.4818027,1.16376721 49.0816541,3.19538038 L59.9036856,16.9784815 L136.811027,17.0723796 C142.970316,17.0723796 147.979275,22.1770211 147.979275,28.453966 L147.979275,40.8970294 C147.979275,42.4676883 146.728431,43.742426 145.187213,43.742426 C143.643203,43.742426 142.395151,42.4676883 142.395151,40.8970294 L142.395151,28.453966 C142.395151,25.3154936 139.88788,22.7631728 136.811027,22.7631728 L60.0879617,22.7631728 C58.3122104,22.7631728 56.6565177,21.9522348 55.5424851,20.5380727 L44.7204536,6.75212613 C44.1927539,6.07492174 43.3998084,5.6907932 42.5538137,5.6907932 L11.1682471,5.6907932 C8.08860299,5.6907932 5.58412357,8.24311395 5.58412357,11.3815864 L5.58412357,130.888244 C5.58412357,132.83165 6.55855313,134.624249 8.19190928,135.682737 C9.49301007,136.524974 9.88110666,138.283429 9.05186431,139.609384 C8.51858051,140.463003 7.61674455,140.929648 6.6925721,140.929648 C6.17883273,140.929648 5.6623013,140.787378 5.19881904,140.485766 Z" id="Path" fill="#8C99AB" fill-rule="nonzero"></path>
                </g>
                <g id="Icons/info" transform="translate(285.000000, 23.115578)">
                    <polygon id="Path" points="0 0 42 0 42 42.2110553 0 42.2110553"></polygon>
                    <path d="M21,5.27638191 C12.306,5.27638191 5.25,12.3678392 5.25,21.1055276 C5.25,29.8432161 12.306,36.9346734 21,36.9346734 C29.694,36.9346734 36.75,29.8432161 36.75,21.1055276 C36.75,12.3678392 29.694,5.27638191 21,5.27638191 Z M22.575,29.0201005 L19.425,29.0201005 L19.425,19.5226131 L22.575,19.5226131 L22.575,29.0201005 Z M22.575,16.3567839 L19.425,16.3567839 L19.425,13.1909548 L22.575,13.1909548 L22.575,16.3567839 Z" id="Icon" fill="#8C99AA" fill-rule="nonzero"></path>
                </g>
                <path d="M117.595982,56.905061 C118.676345,55.8192695 119.977671,55.2763819 121.5,55.2763819 C123.022329,55.2763819 124.319563,55.8151567 125.391741,56.8927225 C126.463919,57.9702884 127,59.2740412 127,60.8040201 C127,62.333999 126.463919,63.6377519 125.391741,64.7153177 C124.319563,65.7928835 123.022329,66.3316583 121.5,66.3316583 C119.977671,66.3316583 118.680437,65.7928835 117.608259,64.7153177 C116.536081,63.6377519 116,62.333999 116,60.8040201 C116,59.2740412 116.531989,57.9744011 117.595982,56.905061 Z M124.323661,58.9532484 C124.34003,58.936797 124.348214,58.9121203 124.348214,58.8792175 C124.348214,58.8298634 124.34003,58.7969611 124.323661,58.7805097 L123.5625,58.1882627 C123.546131,58.1718114 123.513393,58.1635858 123.464286,58.1635858 C123.431547,58.1635858 123.406994,58.1718114 123.390625,58.1882627 L120.665179,61.7170675 C119.944937,61.0261093 119.576637,60.6724097 119.560268,60.6559584 C119.51116,60.6066042 119.462054,60.5819275 119.412946,60.5819275 C119.396577,60.5819275 119.36384,60.6066042 119.314732,60.6559584 L118.676339,61.2975592 C118.65997,61.3140106 118.651786,61.3469129 118.651786,61.396267 C118.651786,61.4291698 118.65997,61.4538465 118.676339,61.4702979 L118.725446,61.4949749 C120.002239,62.7288289 120.648809,63.3539722 120.665179,63.3704235 C120.714286,63.4197777 120.755208,63.4444544 120.787946,63.4444544 C120.820685,63.4444544 120.861607,63.4197777 120.910714,63.3704235 L124.323661,58.9532484 Z" id="Icon" fill="#8C99AA" fill-rule="nonzero"></path>
            </g>
        </g>
    </g>
</svg>