<svg height="203" width="332.97" xmlns="http://www.w3.org/2000/svg"><g fill-rule="evenodd" transform="translate(-7612.03 -677)"><path d="m7730.29 790.315c-.28-20.911-17.37-38.455-38.42-38.455a40.374 40.374 0 0 0 -32.96 17.625 19.334 19.334 0 0 0 -29.99 16.018c0 .363.04.727.06 1.09-.02.436-.06.88-.06 1.316a30.766 30.766 0 0 0 -16.88 26.8 28.594 28.594 0 0 0 28.58 28.466h59.14c.33 0 .65-.033.98-.045.33.012.66.045.99.045h23.66a26.626 26.626 0 0 0 26.6-26.5 26.969 26.969 0 0 0 -21.7-26.367z" fill="#e7f1fa"/><path d="m7706 698h69l22 23v101h-91zm65 49h68l23 22v100l-91 1" fill="#f6f8fc"/><path d="m7765.17 821.655h-59.17v-123.724h68.36l23.09 23.093v19.941h-5.38v-17.713l-19.94-19.942h-60.75v112.966h53.79zm21.52-80.69h-5.38v-10.758h5.38zm-21.52 69.935h-48.41v-102.21h48.41v5.379h-43.03v91.448h43.03zm96.83 59.169h-91.45v-123.724h68.36l23.09 23.093zm-86.07-5.379h80.69v-93.024l-19.94-19.942h-60.75zm59.17-123.725h-5.38v-24.207a2.688 2.688 0 0 0 -2.69-2.689h-24.2v-5.379h24.2a8.078 8.078 0 0 1 8.07 8.068zm-69.93 118.345h-24.2a8.078 8.078 0 0 1 -8.07-8.069v-24.206h5.38v24.206a2.688 2.688 0 0 0 2.69 2.69h24.2zm59.17-91.448h-37.65v-5.379h37.65zm0 10.759h-37.65v-5.38h37.65zm21.52 10.758h-59.17v-5.379h59.17zm0 10.759h-59.17v-5.379h59.17zm0 10.758h-59.17v-5.379h59.17v5.383zm0 10.759h-59.17v-5.379h59.17zm0 10.759h-59.17v-5.379h59.17zm0 10.758h-59.17v-5.379h59.17zm0 10.759h-59.17v-5.379h59.17zm-51.1-129.1h-24.21v-24.21h5.38v18.827h18.83v5.38zm64.55 48.413h-24.21v-24.209h5.38v18.827h18.83v5.379z" fill="#596380"/><g fill="#e7f1fa"><path d="m7886.3 854.523a18.985 18.985 0 0 0 -18.94-18.53 20.023 20.023 0 0 0 -16.25 8.493 9.692 9.692 0 0 0 -5.26-1.544 9.391 9.391 0 0 0 -9.52 9.262 4.62 4.62 0 0 0 .03.525c-.02.21-.03.424-.03.634a14.806 14.806 0 0 0 -8.33 12.915 13.945 13.945 0 0 0 14.09 13.722h29.16c.16 0 .32-.016.48-.022s.33.022.49.022h11.66a12.826 12.826 0 0 0 2.42-25.472z"/><path d="m7930.26 702.679a26.22 26.22 0 0 0 -26.07-25.689 27.511 27.511 0 0 0 -22.37 11.774 13.282 13.282 0 0 0 -7.25-2.139 12.975 12.975 0 0 0 -13.11 12.839c0 .243.03.486.04.729-.01.291-.04.588-.04.879a20.527 20.527 0 0 0 -11.45 17.9 19.255 19.255 0 0 0 19.39 19.016h40.14c.23 0 .44-.022.67-.03.22.008.45.03.67.03h16.06a17.79 17.79 0 0 0 3.32-35.314z"/></g></g></svg>